<svg width="1387" height="307" viewBox="0 0 1387 307" fill="none" xmlns="http://www.w3.org/2000/svg">
<path d="M190.266 173.113C189.023 174.179 187.476 174.827 185.844 174.966C184.589 175.105 183.343 175.205 182.108 175.364C181.987 175.399 181.874 175.46 181.778 175.543C181.681 175.625 181.604 175.727 181.551 175.842C179.777 180.265 178.114 184.748 176.231 189.12C172.399 198.494 167.517 207.403 161.678 215.677C158.454 220.3 154.509 224.376 149.994 227.749C146.564 230.307 142.565 231.992 138.339 232.66C132.989 233.438 127.532 232.411 122.83 229.742C118.556 227.278 114.76 224.066 111.624 220.259C107.097 214.876 103.172 209.014 99.9196 202.777C95.3499 194.166 91.4116 185.234 88.1357 176.052C88.092 175.828 87.9646 175.629 87.7796 175.496C87.5945 175.362 87.3657 175.305 87.1396 175.334C85.5947 175.32 84.0531 175.19 82.5276 174.946C80.9889 174.613 79.608 173.77 78.6097 172.552C77.6113 171.335 77.0542 169.816 77.0291 168.242C77.031 167.172 77.1076 166.104 77.2582 165.045C77.3077 164.69 77.4579 164.357 77.691 164.085C77.924 163.813 78.2301 163.614 78.573 163.511C81.0877 162.551 83.822 162.319 86.4622 162.843C88.0858 163.102 89.7194 163.232 91.4427 163.431V162.624C91.4427 157.375 91.4427 152.145 91.4427 146.905C91.4216 146.714 91.465 146.521 91.5661 146.357C91.6671 146.192 91.82 146.067 92.0005 145.999C96.0059 144.029 100.252 142.592 104.631 141.726C110.513 140.502 116.481 139.732 122.481 139.425C129.695 138.965 136.928 138.918 144.147 139.285C148.579 139.514 153.012 139.883 157.415 140.441C164.006 141.113 170.452 142.81 176.52 145.471C178.104 146.218 178.104 146.208 178.104 147.931V163.64C179.489 163.451 180.793 163.242 182.088 163.102C184.007 162.832 185.939 162.666 187.876 162.604C189.035 162.712 190.172 162.987 191.253 163.421C191.437 163.496 191.606 163.607 191.747 163.747C191.889 163.887 192.002 164.054 192.079 164.238C192.836 166.738 193.026 170.722 190.266 173.113Z" fill="#65308D"/>
<path d="M262.703 71.7698L141.547 1.82318C139.48 0.628832 137.135 0 134.748 0C132.361 0 130.017 0.628832 127.95 1.82318L6.79346 71.7698C4.72826 72.9644 3.01349 74.6811 1.82113 76.7477C0.628768 78.8142 0.000723042 81.1579 2.00676e-06 83.5437V223.447C-0.00129474 225.833 0.625892 228.178 1.81846 230.245C3.01102 232.311 4.7269 234.028 6.79346 235.221L127.95 305.177C130.017 306.372 132.361 307.001 134.748 307.001C137.135 307.001 139.48 306.372 141.547 305.177L262.703 235.221C264.771 234.029 266.488 232.313 267.681 230.246C268.874 228.179 269.5 225.834 269.497 223.447V83.5437C269.501 81.1569 268.875 78.8112 267.682 76.7438C266.489 74.6764 264.772 72.9606 262.703 71.7698Z" fill="#65308D"/>
<path d="M224.193 141.088C221.081 136.616 217.15 132.774 212.609 129.763C208.011 126.61 203.101 123.94 197.956 121.794C197.383 121.579 196.88 121.21 196.502 120.728C194.315 117.734 192.408 114.547 190.804 111.205C187.756 105.079 185.256 98.7139 182.706 92.3787C180.156 86.0434 177.616 79.6484 174.428 73.5522C172.726 70.032 170.536 66.7692 167.923 63.8601C165.344 61.1408 162.435 59.1486 158.441 59.6068C157.775 59.6084 157.11 59.645 156.448 59.7163C154.012 60.3091 151.732 61.4201 149.764 62.9736C147.563 64.5574 145.431 66.2607 143.16 67.7449C137.712 71.311 132.143 71.4007 126.645 67.8944C124.324 66.4102 122.172 64.6769 119.931 63.0632C118.159 61.7302 116.194 60.6754 114.104 59.9355C112.799 59.6317 111.455 59.5276 110.119 59.6267C109.407 59.5731 108.691 59.61 107.988 59.7363C105.433 60.46 103.162 61.9518 101.483 64.0095C98.7091 67.1763 96.4503 70.7596 94.7893 74.628C92.4883 79.6982 90.3467 84.8282 88.2349 89.978C85.6949 96.1539 83.344 102.39 80.4553 108.426C78.4777 112.777 76.015 116.89 73.114 120.688C72.7558 121.118 72.3022 121.459 71.7892 121.684C65.594 124.256 59.75 127.603 54.3972 131.645C50.2253 134.745 46.7334 138.667 44.1373 143.17C42.648 145.699 41.6922 148.506 41.329 151.419C40.9659 154.331 41.2029 157.287 42.0256 160.104C43.3893 164.577 45.8238 168.649 49.1178 171.968C53.1801 176.14 57.856 179.667 62.9837 182.427C67.6143 184.986 72.4406 187.174 77.4172 188.971C77.7084 189.097 77.945 189.323 78.0846 189.609C80.1764 194.34 82.1587 199.151 84.3401 203.843C87.662 211.094 91.6997 217.994 96.393 224.442C100.6 230.359 105.76 235.536 111.663 239.763C118.398 244.624 126.468 247.291 134.773 247.403C136.197 247.303 137.632 247.273 139.046 247.104C144.69 246.435 150.125 244.563 154.984 241.615C160.982 237.955 166.284 233.26 170.643 227.749C175.084 222.205 178.961 216.232 182.218 209.919C185.644 203.358 188.717 196.618 191.422 189.728C191.508 189.52 191.643 189.337 191.817 189.195C191.991 189.052 192.197 188.955 192.418 188.911C200.043 186.252 207.254 182.526 213.834 177.845C217.965 174.937 221.533 171.302 224.363 167.117C226.86 163.446 228.266 159.142 228.417 154.705C228.486 149.834 227.007 145.066 224.193 141.088ZM190.266 173.113C189.023 174.179 187.475 174.827 185.843 174.966C184.588 175.105 183.343 175.205 182.108 175.364C181.986 175.399 181.873 175.46 181.777 175.543C181.681 175.625 181.604 175.727 181.55 175.842C179.777 180.265 178.114 184.748 176.231 189.12C172.399 198.494 167.517 207.403 161.678 215.677C158.454 220.3 154.509 224.376 149.994 227.749C146.564 230.307 142.564 231.992 138.339 232.66C132.989 233.438 127.531 232.411 122.83 229.742C118.556 227.278 114.76 224.066 111.624 220.259C107.096 214.876 103.172 209.014 99.9193 202.777C95.3496 194.166 91.4113 185.234 88.1353 176.052C88.0917 175.828 87.9643 175.629 87.7792 175.496C87.5942 175.363 87.3653 175.305 87.1392 175.334C85.5944 175.32 84.0527 175.19 82.5273 174.946C80.9886 174.613 79.6077 173.77 78.6093 172.553C77.611 171.335 77.0539 169.816 77.0287 168.242C77.0307 167.172 77.1072 166.104 77.2578 165.045C77.3074 164.69 77.4576 164.357 77.6907 164.085C77.9237 163.813 78.2298 163.614 78.5727 163.511C81.0874 162.551 83.8217 162.32 86.4619 162.843C88.0855 163.102 89.7191 163.232 91.4424 163.431V162.624C91.4424 157.375 91.4424 152.145 91.4424 146.906C91.4213 146.714 91.4647 146.521 91.5657 146.357C91.6668 146.192 91.8197 146.067 92.0002 145.999C96.0056 144.029 100.252 142.592 104.631 141.726C110.513 140.502 116.481 139.732 122.481 139.425C129.694 138.965 136.928 138.918 144.146 139.285C148.579 139.514 153.012 139.883 157.415 140.441C164.006 141.113 170.452 142.811 176.52 145.471C178.104 146.218 178.104 146.208 178.104 147.932V163.64C179.488 163.451 180.793 163.242 182.088 163.102C184.007 162.833 185.939 162.666 187.875 162.604C189.035 162.712 190.172 162.987 191.252 163.421C191.437 163.496 191.605 163.607 191.747 163.747C191.889 163.887 192.002 164.054 192.079 164.238C192.836 166.738 193.025 170.722 190.266 173.113Z" fill="white"/>
<path d="M437.645 197.394C437.645 214.109 423.396 237.615 391.715 237.615C363.368 237.615 351.221 220.274 346.653 213.715C340.963 205.439 343.459 197.223 348.826 193.392C354.222 189.542 362.852 189.936 368.906 198.082C369.199 198.445 369.532 198.93 369.896 199.466C373.11 203.913 378.486 211.391 391.715 211.391C407.874 211.391 411.188 200.335 411.188 197.384C411.188 191.482 407.197 187.753 385.358 183.792L385.237 183.772C384.61 183.63 383.903 183.479 383.155 183.317C387.48 184.166 391.937 184.57 396.505 184.57C408.894 184.57 420.577 181.447 430.753 175.96C434.977 181.286 437.645 188.249 437.645 197.394Z" fill="#25282B"/>
<path d="M499.937 105.766C467.912 105.766 441.859 135.345 441.859 171.696C441.859 208.046 467.912 237.626 499.937 237.626C530.265 237.626 555.883 207.43 555.883 171.696C555.873 135.962 530.255 105.766 499.937 105.766ZM499.937 210.441C480.999 210.441 469.286 190.331 469.286 171.696C469.286 149.382 482.181 133.193 499.937 133.193C516.197 133.193 528.456 149.746 528.456 171.696C528.446 192.696 515.389 210.441 499.937 210.441Z" fill="#25282B"/>
<path d="M612.698 105.29C602.703 105.29 593.86 107.433 586.322 111.677V82.9667C586.322 74.9427 580.379 68.8994 572.487 68.8994C564.746 68.8994 559.127 74.8214 559.127 82.9667V223.326C559.127 231.754 564.624 237.636 572.487 237.636C578.247 237.636 582.966 234.361 585.099 229.42C593.113 234.756 602.713 237.636 612.698 237.636C627.523 237.636 640.883 230.865 650.321 218.566C659.528 206.57 664.601 189.765 664.601 171.231C664.591 133.021 642.762 105.29 612.698 105.29ZM612.698 210.209C595.194 210.209 586.322 197.091 586.322 171.231C586.322 136.719 601.369 132.728 612.698 132.728C634.193 132.728 637.406 156.85 637.406 171.231C637.396 185.783 634.193 210.209 612.698 210.209Z" fill="#25282B"/>
<path d="M767.114 211.087C767.114 211.037 767.114 210.996 767.114 210.956C767.114 201.76 767.114 182.629 766.872 156.243V155.051C766.872 141.458 762.526 130.302 754.31 122.773C746.124 115.274 734.574 111.475 719.971 111.475C682.074 111.475 673.545 137.75 673.545 146.956C673.545 155.192 678.476 160.316 686.43 160.316C694.504 160.316 696.919 154.667 698.86 150.129C699.921 147.643 701.022 145.066 703.013 143.086C706.308 139.791 711.856 138.194 719.971 138.194C736.827 138.194 739.95 142.621 740.152 151.908C739.909 155.101 732.381 159.538 716.161 159.538C684.772 159.538 667.835 180.881 667.835 200.961C667.835 219.212 681.377 237.635 711.644 237.635C725.559 237.635 737.019 232.552 744.942 227.519C749.298 233.765 756.574 237.635 764.456 237.635C778.766 237.635 780.909 229.419 780.909 224.518C780.919 216.959 775.835 212.057 767.114 211.087ZM716.171 186.005C725.337 186.005 733.452 184.822 740.405 182.478V196.717C735.059 202.447 724.902 210.926 711.654 210.926C703.852 210.926 694.555 209.198 694.555 200.971C694.565 199.425 695.171 186.005 716.171 186.005Z" fill="#25282B"/>
<path d="M824.315 211.178V138.659H828.084C835.573 138.659 841.444 132.788 841.444 125.299C841.444 117.811 835.573 111.939 828.084 111.939H824.315V102.935C824.315 95.4366 818.322 89.3428 810.955 89.3428C803.719 89.3428 797.595 95.5679 797.595 102.935V111.939H793.826C786.459 111.939 780.466 117.932 780.466 125.299C780.466 132.666 786.459 138.659 793.826 138.659H797.595V214.513C797.595 235.038 811.036 238.1 819.04 238.1H823.324C831.48 238.1 837.867 232.127 837.867 224.508C837.877 217.312 831.995 211.623 824.315 211.178Z" fill="#25282B"/>
<path d="M897.448 106.715C865.817 106.715 840.078 136.082 840.078 172.17C840.078 190.492 845.687 207.096 855.883 218.919C866.282 230.986 881.037 237.625 897.448 237.625C917.812 237.625 937.296 225.761 945.987 214.089C951.312 207.156 948.958 199.385 943.885 195.302C938.801 191.209 930.565 190.704 924.684 197.677C919.792 203.458 909.737 210.198 897.459 210.198C881.956 210.198 870.607 199.152 867.758 181.72H941.237C948.857 181.72 954.597 175.879 954.597 168.128C954.597 151.746 948.745 136.375 938.124 124.824C927.351 113.152 912.91 106.715 897.448 106.715ZM897.448 134.142C909.515 134.142 919.732 142.095 924.451 154.768H870.506C875.266 142.742 886.201 134.142 897.448 134.142Z" fill="#25282B"/>
<path d="M1004.02 113.374C997.344 113.374 990.977 115.163 985.045 118.69C982.721 114.274 978.315 111.475 973.1 111.475C965.218 111.475 959.265 117.73 959.265 126.017V223.083C959.265 231.38 965.208 237.625 973.1 237.625C980.72 237.625 986.693 231.238 986.693 223.083V159.325C986.693 155.657 993.261 140.802 1007.12 140.802C1015.26 140.802 1020.95 135.213 1020.95 127.209C1020.94 118.549 1014.61 113.374 1004.02 113.374Z" fill="#25282B"/>
<path d="M1075.87 108.857C1066.5 108.857 1057.95 111.192 1050.42 115.82C1047.94 113.051 1044.57 111.475 1040.9 111.475C1033.41 111.475 1027.54 117.862 1027.54 126.017V223.083C1027.54 231.38 1033.28 237.625 1040.9 237.625C1048.38 237.625 1054.02 231.37 1054.02 223.083V153.616C1054.02 147.421 1062.53 135.567 1075.87 135.567C1087.56 135.567 1097.96 145.663 1097.96 153.616V223.083C1097.96 231.38 1103.7 237.625 1111.32 237.625C1118.8 237.625 1124.43 231.37 1124.43 223.083V152.191C1124.43 151.666 1124.43 150.857 1124.14 149.937C1121.99 127.614 1100.02 108.857 1075.87 108.857Z" fill="#25282B"/>
<path d="M1233.85 211.087C1233.85 211.037 1233.85 210.996 1233.85 210.956C1233.85 201.76 1233.85 182.629 1233.61 156.243V155.051C1233.61 141.458 1229.26 130.302 1221.05 122.773C1212.86 115.274 1201.31 111.475 1186.71 111.475C1148.81 111.475 1140.28 137.75 1140.28 146.956C1140.28 155.192 1145.21 160.316 1153.17 160.316C1161.24 160.316 1163.66 154.667 1165.6 150.129C1166.66 147.643 1167.76 145.066 1169.75 143.086C1173.04 139.791 1178.59 138.194 1186.71 138.194C1203.56 138.194 1206.69 142.621 1206.89 151.908C1206.65 155.101 1199.12 159.538 1182.9 159.538C1151.51 159.538 1134.57 180.881 1134.57 200.961C1134.57 219.212 1148.11 237.635 1178.38 237.635C1192.29 237.635 1203.75 232.552 1211.68 227.519C1216.03 233.765 1223.31 237.635 1231.19 237.635C1245.5 237.635 1247.64 229.419 1247.64 224.518C1247.65 216.959 1242.57 212.057 1233.85 211.087ZM1182.91 186.005C1192.07 186.005 1200.19 184.822 1207.14 182.478V196.717C1201.79 202.447 1191.64 210.926 1178.39 210.926C1170.59 210.926 1161.29 209.198 1161.29 200.971C1161.3 199.425 1161.91 186.005 1182.91 186.005Z" fill="#25282B"/>
<path d="M1352.36 216.696L1311.7 160.134C1320.09 152.939 1329.21 145.39 1337.23 138.771C1342.96 133.991 1343.8 125.815 1339.18 120.206C1336.88 117.286 1333.67 115.477 1330.17 115.113C1326.63 114.749 1323.11 115.861 1320.25 118.246L1320.27 118.266C1318.83 119.266 1316.21 121.439 1310.53 126.149C1304.32 131.302 1296.67 137.71 1289.5 143.743L1280.95 151.17V88.6763C1280.95 81.4405 1274.94 75.3164 1267.84 75.3164C1260.22 75.3164 1254.24 81.1879 1254.24 88.6763V224.508C1254.24 231.865 1260.22 237.625 1267.84 237.625C1274.95 237.625 1280.95 231.613 1280.95 224.508V186.773C1283.37 184.449 1287.02 181.154 1291.24 177.466L1330.79 232.077C1332.88 234.998 1336.04 236.898 1339.7 237.444C1343.27 237.969 1347.01 237.12 1349.49 235.22L1349.51 235.21C1355.33 230.673 1356.58 222.548 1352.36 216.696Z" fill="#25282B"/>
<path d="M425.933 126.644C418.626 117.356 404.306 107.433 385.995 107.433C373.292 107.433 361.882 112.839 354.151 121.348C364.065 128.554 375.869 133.293 388.683 134.668C388.268 134.647 387.864 134.617 387.43 134.617C395.585 134.617 401.022 139.67 405.499 144.44C412.098 151.362 420.112 150.13 424.781 146.037C429.662 141.782 431.622 133.758 425.933 126.644Z" fill="#25282B"/>
<path d="M390.573 157.487C380.922 155.334 375.798 153.788 373.11 151.898C362.802 148.392 353.545 142.611 345.945 135.133C335.809 125.219 328.604 112.344 325.704 97.9336C324.733 102.582 324.248 107.393 324.248 112.324C324.248 138.033 337.669 160.6 357.89 173.373C361.205 175.506 364.712 177.345 368.36 178.891C368.653 179.012 368.966 179.134 369.28 179.255C374.312 181.185 379.193 182.418 382.902 183.267C382.973 183.267 383.074 183.287 383.145 183.317C387.47 184.166 391.927 184.57 396.495 184.57C408.884 184.57 420.567 181.448 430.743 175.96C421.001 163.55 402.861 159.922 390.573 157.487Z" fill="#25282B"/>
<path d="M1345.64 99.9639H1360.33V105.388H1356.3V116.764H1349.62L1349.67 105.388H1345.64V99.9639ZM1386.39 99.9639V116.764H1380.3L1380.1 107.98L1376.5 116.764H1372.04L1368.49 107.404V116.764H1362.68V99.9639H1371.7L1374.58 108.556L1378.09 99.9639H1386.39Z" fill="#25282B"/>
</svg>
