<svg width="1528" height="307" viewBox="0 0 1528 307" fill="none" xmlns="http://www.w3.org/2000/svg">
<path d="M281.369 71.7735L160.287 1.8192C156.085 -0.6064 150.904 -0.6064 146.703 1.8192L25.6309 71.7735C21.4296 74.1991 18.8442 78.6945 18.8442 83.5457V223.454C18.8442 228.305 21.4296 232.801 25.6309 235.227L146.703 305.181C150.904 307.606 156.085 307.606 160.287 305.181L281.369 235.227C285.57 232.801 288.156 228.305 288.156 223.454V83.5457C288.156 78.6837 285.57 74.1991 281.369 71.7735ZM199.283 184.332C199.283 209.634 178.783 230.149 153.5 230.149C128.217 230.149 107.717 209.634 107.717 184.332V90.3158C107.717 82.7911 113.879 76.7001 121.43 76.8403C128.842 76.9804 134.648 83.3409 134.648 90.7578V103.468H185.817C193.337 103.468 199.423 109.634 199.283 117.191C199.143 124.608 192.787 130.419 185.376 130.419H152.724C142.738 130.419 134.648 138.515 134.648 148.509C126.623 142.472 120.913 133.513 119.114 123.207C118.694 125.546 118.457 127.961 118.457 130.419C118.457 143.657 124.824 155.419 134.648 162.793V184.321C134.648 194.617 142.9 202.993 153.144 203.187C163.712 203.381 172.352 194.401 172.352 183.825V170.846C172.352 170.436 172.373 170.026 172.416 169.617C173.041 162.75 178.794 157.37 185.817 157.37C187.53 157.37 189.168 157.704 190.676 158.287C190.751 158.319 190.816 158.34 190.891 158.362C191.139 158.459 191.376 158.578 191.624 158.696C191.753 158.761 191.871 158.815 192.001 158.879C192.227 158.998 192.432 159.117 192.647 159.246C192.787 159.321 192.916 159.408 193.046 159.494C193.25 159.623 193.444 159.753 193.638 159.893C193.778 159.99 193.907 160.087 194.037 160.195C194.22 160.335 194.392 160.475 194.575 160.626C194.715 160.744 194.845 160.863 194.974 160.982C195.136 161.133 195.297 161.283 195.448 161.434C195.588 161.575 195.717 161.725 195.846 161.876C195.976 162.027 196.116 162.167 196.245 162.329C196.493 162.631 196.719 162.933 196.935 163.256C197.031 163.386 197.107 163.537 197.193 163.677C197.322 163.882 197.452 164.086 197.57 164.302C197.656 164.453 197.732 164.615 197.807 164.766C197.915 164.981 198.023 165.186 198.12 165.412C198.195 165.574 198.26 165.736 198.324 165.898C198.41 166.124 198.497 166.35 198.572 166.577C198.626 166.738 198.68 166.911 198.734 167.073C198.809 167.321 198.863 167.558 198.927 167.806C198.96 167.967 199.003 168.129 199.035 168.291C199.089 168.571 199.132 168.851 199.164 169.132C199.186 169.272 199.208 169.412 199.218 169.552C199.261 169.983 199.283 170.404 199.283 170.846V184.332Z" fill="#EAB139"/>
<path d="M460.134 179.007C460.102 178.726 460.06 178.446 460.006 178.166C459.974 178.004 459.942 177.842 459.9 177.681C459.846 177.433 459.782 177.185 459.707 176.948C459.654 176.786 459.611 176.614 459.547 176.452C459.473 176.225 459.387 175.999 459.302 175.773C459.238 175.611 459.174 175.449 459.099 175.288C459.003 175.072 458.897 174.856 458.79 174.641C458.715 174.479 458.64 174.328 458.555 174.177C458.438 173.962 458.31 173.757 458.182 173.552C458.096 173.412 458.011 173.272 457.926 173.131C457.712 172.819 457.477 172.506 457.243 172.204C457.115 172.053 456.976 171.902 456.848 171.752C456.72 171.601 456.592 171.45 456.453 171.31C456.304 171.148 456.144 171.008 455.984 170.857C455.856 170.738 455.728 170.609 455.589 170.501C455.418 170.35 455.237 170.21 455.055 170.07C454.927 169.962 454.789 169.865 454.661 169.768C454.469 169.628 454.276 169.498 454.074 169.369C453.946 169.283 453.807 169.207 453.668 169.121C453.455 168.992 453.241 168.873 453.028 168.755C452.911 168.69 452.783 168.636 452.655 168.571C452.42 168.453 452.174 168.345 451.929 168.237C451.865 168.205 451.79 168.183 451.716 168.162C450.222 167.58 448.6 167.245 446.904 167.245C439.947 167.245 434.238 172.625 433.63 179.492C433.588 179.891 433.566 180.3 433.566 180.721V193.701C433.566 204.276 424.998 213.256 414.542 213.062C404.395 212.868 396.222 204.503 396.222 194.196C396.222 194.196 396.222 179.513 396.222 158.384C396.222 148.39 404.235 140.294 414.126 140.294H446.466C453.807 140.294 460.113 134.494 460.241 127.067C460.38 119.51 454.351 113.343 446.904 113.343H396.222V100.633C396.222 93.216 390.481 86.8448 383.13 86.7154C375.65 86.5753 369.547 92.6662 369.547 100.191V111.004C358.247 106.918 349.295 97.8516 345.294 86.4136C343.822 90.6287 343 95.1673 343 99.8999C343 117.45 354.075 132.381 369.536 137.966V194.196C369.536 219.498 389.841 240.013 414.883 240.013C439.925 240.013 460.23 219.498 460.23 194.196V180.721C460.23 180.279 460.209 179.848 460.166 179.427C460.177 179.287 460.156 179.147 460.134 179.007Z" fill="#25282B"/>
<path d="M520.697 113.915C490.127 113.915 465.256 142.591 465.256 177.832C465.256 195.727 470.676 211.93 480.524 223.476C490.576 235.259 504.841 241.738 520.697 241.738C540.383 241.738 559.204 230.16 567.602 218.754C572.745 211.984 570.472 204.395 565.564 200.406C560.645 196.406 552.696 195.921 547.009 202.724C542.282 208.362 532.562 214.949 520.697 214.949C505.716 214.949 494.747 204.168 491.995 187.146H563.003C570.365 187.146 575.913 181.443 575.913 173.875C575.913 157.877 570.258 142.871 559.994 131.594C549.601 120.189 535.645 113.915 520.697 113.915ZM494.662 160.831C499.261 149.091 509.824 140.693 520.697 140.693C532.359 140.693 542.229 148.455 546.785 160.831H494.662Z" fill="#25282B"/>
<path d="M623.693 118.097C617.238 118.097 611.081 119.843 605.352 123.293C603.1 118.981 598.843 116.243 593.807 116.243C586.189 116.243 580.438 122.344 580.438 130.441V225.211C580.438 233.307 586.189 239.42 593.807 239.42C601.169 239.42 606.942 233.178 606.942 225.211V162.965C606.942 159.386 613.29 144.876 626.681 144.876C634.555 144.876 640.05 139.421 640.05 131.605C640.05 123.142 633.936 118.097 623.693 118.097Z" fill="#25282B"/>
<path d="M693.122 113.677C684.064 113.677 675.805 115.963 668.528 120.469C666.128 117.763 662.873 116.232 659.331 116.232C652.097 116.232 646.42 122.474 646.42 130.43V225.201C646.42 233.297 651.969 239.41 659.331 239.41C666.554 239.41 672.007 233.308 672.007 225.201V157.37C672.007 151.323 680.233 139.744 693.122 139.744C704.422 139.744 714.473 149.598 714.473 157.37V225.201C714.473 233.297 720.021 239.41 727.383 239.41C734.607 239.41 740.059 233.308 740.059 225.201V155.98C740.059 155.462 740.059 154.675 739.771 153.78C737.701 131.993 716.479 113.677 693.122 113.677Z" fill="#25282B"/>
<path d="M845.809 213.493C845.809 213.45 845.809 213.407 845.809 213.374C845.809 204.394 845.809 185.712 845.574 159.947V158.782C845.574 145.512 841.381 134.613 833.432 127.271C825.525 119.951 814.354 116.243 800.248 116.243C763.629 116.243 755.381 141.9 755.381 150.891C755.381 158.933 760.151 163.935 767.833 163.935C775.633 163.935 777.97 158.427 779.847 153.996C780.872 151.57 781.939 149.058 783.859 147.118C787.039 143.905 792.406 142.342 800.248 142.342C816.541 142.342 819.55 146.654 819.753 155.731C819.518 158.858 812.241 163.181 796.567 163.181C766.233 163.181 749.865 184.019 749.865 203.629C749.865 221.449 762.957 239.431 792.203 239.431C805.647 239.431 816.723 234.472 824.384 229.556C828.598 235.658 835.63 239.431 843.248 239.431C857.076 239.431 859.146 231.41 859.146 226.624C859.146 219.217 854.206 214.42 845.809 213.493ZM819.998 199.457C814.834 205.052 805.018 213.331 792.214 213.331C784.681 213.331 775.697 211.65 775.697 203.607C775.697 202.109 776.284 189.011 796.588 189.011C805.445 189.011 813.298 187.857 820.009 185.561V199.457H819.998Z" fill="#25282B"/>
<path d="M921.042 163.752C929.141 156.734 937.954 149.361 945.711 142.892C951.249 138.224 952.06 130.247 947.6 124.77C945.37 121.924 942.275 120.156 938.882 119.801C935.468 119.445 932.064 120.523 929.301 122.851L929.322 122.873C927.935 123.854 925.396 125.978 919.911 130.57C913.904 135.605 906.51 141.857 899.585 147.754L891.327 155.009V93.9706C891.327 86.8986 885.522 80.9263 878.651 80.9263C871.289 80.9263 865.516 86.6507 865.516 93.9706V226.613C865.516 233.793 871.289 239.42 878.651 239.42C885.522 239.42 891.327 233.556 891.327 226.613V189.766C893.653 187.502 897.184 184.278 901.271 180.678L939.501 233.998C941.518 236.844 944.569 238.709 948.101 239.237C951.548 239.754 955.175 238.924 957.576 237.049C963.21 232.629 964.415 224.683 960.34 218.981L921.042 163.752Z" fill="#25282B"/>
<path d="M1019.35 113.677C1010.3 113.677 1002.04 115.963 994.761 120.469C992.36 117.763 989.106 116.232 985.563 116.232C978.329 116.232 972.653 122.474 972.653 130.43V225.201C972.653 233.297 978.201 239.41 985.563 239.41C992.787 239.41 998.239 233.308 998.239 225.201V157.37C998.239 151.323 1006.47 139.744 1019.35 139.744C1030.65 139.744 1040.71 149.598 1040.71 157.37V225.201C1040.71 233.297 1046.25 239.41 1053.62 239.41C1060.84 239.41 1066.29 233.308 1066.29 225.201V155.98C1066.29 155.462 1066.29 154.675 1066 153.78C1063.93 131.993 1042.7 113.677 1019.35 113.677Z" fill="#25282B"/>
<path d="M1126.26 113.915C1095.69 113.915 1070.82 142.591 1070.82 177.832C1070.82 195.727 1076.24 211.93 1086.08 223.476C1096.14 235.259 1110.4 241.738 1126.26 241.738C1145.94 241.738 1164.76 230.16 1173.16 218.754C1178.3 211.984 1176.03 204.395 1171.12 200.406C1166.2 196.406 1158.26 195.921 1152.57 202.724C1147.84 208.362 1138.12 214.949 1126.26 214.949C1111.28 214.949 1100.31 204.168 1097.55 187.146H1168.56C1175.92 187.146 1181.47 181.443 1181.47 173.875C1181.47 157.877 1175.82 142.871 1165.55 131.594C1155.16 120.189 1141.2 113.915 1126.26 113.915ZM1100.22 160.831C1104.82 149.091 1115.38 140.693 1126.26 140.693C1137.92 140.693 1147.79 148.455 1152.34 160.831H1100.22Z" fill="#25282B"/>
<path d="M1231.58 162.308C1214.34 158.437 1212.04 156.508 1212.04 150.88C1212.04 142.957 1222.18 139.992 1228.56 139.992C1236.44 139.992 1241.71 144.94 1246.04 149.587C1252.41 156.335 1260.15 155.128 1264.66 151.15C1269.37 146.989 1271.27 139.13 1265.79 132.209C1258.73 123.132 1244.88 113.44 1227.18 113.44C1204.72 113.44 1186.46 131.066 1186.46 152.735C1186.46 179.136 1215.5 185.572 1226.44 187.997L1226.56 188.019C1247.66 191.9 1251.52 195.522 1251.52 201.279C1251.52 204.168 1248.33 214.949 1232.7 214.949C1219.92 214.949 1214.73 207.661 1211.63 203.295C1211.26 202.788 1210.93 202.325 1210.67 201.969C1204.82 193.991 1196.49 193.614 1191.27 197.366C1186.06 201.117 1183.66 209.127 1189.16 217.223C1193.57 223.605 1205.32 240.563 1232.7 240.563C1263.33 240.563 1277.11 217.59 1277.11 201.268C1277.11 171.525 1248.63 165.747 1231.58 162.308Z" fill="#25282B"/>
<path d="M1300.52 116.232C1292.89 116.232 1286.92 122.474 1286.92 130.43V225.201C1286.92 233.297 1292.77 239.409 1300.52 239.409C1308.15 239.409 1314.11 233.167 1314.11 225.201V130.43C1314.12 122.474 1308.15 116.232 1300.52 116.232Z" fill="#25282B"/>
<path d="M1419.87 213.493C1419.87 213.45 1419.87 213.407 1419.87 213.374C1419.87 204.394 1419.87 185.712 1419.64 159.947V158.782C1419.64 145.512 1415.44 134.613 1407.49 127.271C1399.59 119.951 1388.42 116.243 1374.31 116.243C1337.69 116.243 1329.44 141.9 1329.44 150.891C1329.44 158.933 1334.21 163.935 1341.9 163.935C1349.7 163.935 1352.03 158.427 1353.91 153.996C1354.93 151.57 1356 149.058 1357.92 147.118C1361.1 143.905 1366.47 142.342 1374.31 142.342C1390.6 142.342 1393.61 146.654 1393.82 155.731C1393.58 158.858 1386.3 163.181 1370.63 163.181C1340.29 163.181 1323.93 184.019 1323.93 203.629C1323.93 221.449 1337.02 239.431 1366.27 239.431C1379.71 239.431 1390.79 234.472 1398.45 229.556C1402.66 235.658 1409.69 239.431 1417.31 239.431C1431.14 239.431 1433.21 231.41 1433.21 226.624C1433.21 219.217 1428.27 214.42 1419.87 213.493ZM1394.06 199.457C1388.9 205.052 1379.08 213.331 1366.28 213.331C1358.74 213.331 1349.76 211.65 1349.76 203.607C1349.76 202.109 1350.35 189.011 1370.65 189.011C1379.51 189.011 1387.36 187.857 1394.07 185.561V199.457H1394.06Z" fill="#25282B"/>
<path d="M1300.52 65.2622C1292.62 65.2622 1286.89 71.0513 1286.89 79.0288V83.0931C1286.89 90.8119 1292.88 96.8597 1300.52 96.8597C1308.41 96.8597 1314.14 91.0706 1314.14 83.0931V79.0288C1314.14 70.7926 1308.67 65.2622 1300.52 65.2622Z" fill="#25282B"/>
<path d="M1444.72 105.43C1448.78 105.43 1452.39 106.326 1455.56 108.118C1458.73 109.91 1461.2 112.406 1462.98 115.606C1464.81 118.806 1465.73 122.422 1465.73 126.454C1465.73 130.55 1464.81 134.198 1462.98 137.398C1461.2 140.598 1458.73 143.094 1455.56 144.886C1452.39 146.678 1448.78 147.574 1444.72 147.574C1440.67 147.574 1437.03 146.678 1433.79 144.886C1430.62 143.094 1428.12 140.598 1426.28 137.398C1424.51 134.198 1423.62 130.55 1423.62 126.454C1423.62 122.422 1424.51 118.806 1426.28 115.606C1428.12 112.406 1430.62 109.91 1433.79 108.118C1437.03 106.326 1440.67 105.43 1444.72 105.43ZM1444.72 141.814C1449.22 141.814 1452.8 140.406 1455.47 137.59C1458.19 134.71 1459.55 130.998 1459.55 126.454C1459.55 121.846 1458.19 118.166 1455.47 115.414C1452.8 112.598 1449.22 111.19 1444.72 111.19C1440.16 111.19 1436.52 112.598 1433.79 115.414C1431.07 118.166 1429.71 121.846 1429.71 126.454C1429.71 130.998 1431.07 134.71 1433.79 137.59C1436.52 140.406 1440.16 141.814 1444.72 141.814ZM1454.14 122.614C1454.14 123.958 1453.82 125.142 1453.18 126.166C1452.55 127.19 1451.7 127.958 1450.62 128.47L1455.18 136.342H1447.2L1443.58 129.334H1443.01V136.342H1435.79V116.086H1446.82C1449.03 116.086 1450.81 116.694 1452.14 117.91C1453.47 119.062 1454.14 120.63 1454.14 122.614ZM1442.82 124.63H1445.3C1446.25 124.63 1446.72 124.182 1446.72 123.286C1446.72 122.39 1446.25 121.942 1445.3 121.942H1442.82V124.63Z" fill="#25282B"/>
</svg>
